<svg width="24" height="24" viewBox="0 0 24 24" fill="none" xmlns="http://www.w3.org/2000/svg">
<path d="M12.2286 6.1268V11.572L16.9518 14.3007C17.0354 14.3489 17.1086 14.4131 17.1674 14.4896C17.2261 14.5661 17.2692 14.6535 17.2942 14.7467C17.3192 14.8398 17.3256 14.937 17.3131 15.0327C17.3005 15.1283 17.2692 15.2205 17.221 15.3041C17.1728 15.3877 17.1086 15.4609 17.0321 15.5197C16.9556 15.5784 16.8683 15.6215 16.7751 15.6465C16.6819 15.6715 16.5847 15.6779 16.4891 15.6653C16.3934 15.6528 16.3012 15.6215 16.2176 15.5733L11.1273 12.6366H11.1151L11.0784 12.6121L11.0416 12.5876H11.0172L10.9927 12.5509H10.9682L10.9438 12.5142L10.9193 12.4897L10.8948 12.4653V12.4408L10.8703 12.4041C10.8703 12.3918 10.8581 12.3796 10.8581 12.3674C10.8581 12.3551 10.8459 12.3551 10.8459 12.3429L10.8214 12.3062C10.8214 12.2939 10.8214 12.2817 10.8092 12.2817C10.8094 12.2646 10.8052 12.2477 10.7969 12.2328V12.2083C10.7925 12.2033 10.7891 12.1975 10.787 12.1912C10.7849 12.1849 10.7841 12.1782 10.7847 12.1716V12.1349C10.7803 12.1299 10.7769 12.1241 10.7748 12.1178C10.7727 12.1115 10.7719 12.1048 10.7724 12.0982V6.1268C10.7724 5.93208 10.8498 5.74534 10.9875 5.60765C11.1252 5.46996 11.3119 5.39261 11.5066 5.39261C11.7014 5.39261 11.8881 5.46996 12.0258 5.60765C12.1635 5.74534 12.2408 5.93208 12.2408 6.1268H12.2286ZM23.8776 8.94117C23.9028 8.90296 23.9234 8.86188 23.9388 8.81881C23.9603 8.78029 23.9768 8.73916 23.9878 8.69644C23.9878 8.65973 24 8.61079 24 8.56184V3.66728C24 3.47256 23.9226 3.28582 23.785 3.14813C23.6473 3.01045 23.4605 2.9331 23.2658 2.9331C23.0711 2.9331 22.8844 3.01045 22.7467 3.14813C22.609 3.28582 22.5316 3.47256 22.5316 3.66728V6.76309L19.6316 3.86306C18.0226 2.25556 15.973 1.16117 13.7421 0.718255C11.5112 0.275336 9.19907 0.503764 7.09796 1.37467C4.99684 2.24557 3.2011 3.71984 1.93771 5.61113C0.674314 7.50242 0 9.72582 0 12.0003C0 14.2747 0.674314 16.4981 1.93771 18.3894C3.2011 20.2807 4.99684 21.755 7.09796 22.6259C9.19907 23.4968 11.5112 23.7252 13.7421 23.2823C15.973 22.8394 18.0226 21.745 19.6316 20.1375C19.7669 19.9982 19.8426 19.8116 19.8426 19.6174C19.8426 19.4232 19.7669 19.2367 19.6316 19.0974C19.5643 19.0274 19.4835 18.9718 19.3941 18.9338C19.3048 18.8958 19.2087 18.8762 19.1116 18.8762C19.0145 18.8762 18.9183 18.8958 18.829 18.9338C18.7396 18.9718 18.6589 19.0274 18.5915 19.0974C17.188 20.5 15.4001 21.4551 13.4539 21.8418C11.5077 22.2284 9.49055 22.0294 7.65745 21.2698C5.82435 20.5102 4.25763 19.2241 3.15536 17.5742C2.05309 15.9242 1.46476 13.9845 1.46476 12.0003C1.46476 10.016 2.05309 8.07631 3.15536 6.42638C4.25763 4.77645 5.82435 3.49039 7.65745 2.73077C9.49055 1.97116 11.5077 1.77211 13.4539 2.15878C15.4001 2.54546 17.188 3.5005 18.5915 4.90316L21.4915 7.80318H18.3713C18.1765 7.80318 17.9898 7.88054 17.8521 8.01822C17.7144 8.15591 17.6371 8.34265 17.6371 8.53737C17.6371 8.73209 17.7144 8.91883 17.8521 9.05652C17.9898 9.1942 18.1765 9.27155 18.3713 9.27155H23.4004L23.535 9.23484L23.6574 9.17366H23.6696L23.7797 9.08801L23.8776 8.96564V8.94117Z" fill="#141414"/>
</svg>
