<svg width="24" height="24" viewBox="0 0 24 24" fill="none" xmlns="http://www.w3.org/2000/svg">
<path d="M22.5164 9.40364C22.0909 8.95636 21.6545 8.49818 21.48 8.07273C21.3055 7.64727 21.3055 7.09091 21.2945 6.46909C21.2836 5.45455 21.2618 4.28727 20.4873 3.51273C19.7127 2.73818 18.5455 2.71636 17.5309 2.70545C16.9091 2.69455 16.32 2.68364 15.9273 2.52C15.5345 2.35636 15.0436 1.90909 14.5964 1.48364C13.8764 0.785455 13.0473 0 12 0C10.9527 0 10.1236 0.785455 9.40364 1.48364C8.95636 1.90909 8.49818 2.34545 8.07273 2.52C7.64727 2.69455 7.09091 2.69455 6.46909 2.70545C5.45455 2.71636 4.28727 2.73818 3.51273 3.51273C2.73818 4.28727 2.71636 5.45455 2.70545 6.46909C2.69455 7.09091 2.68364 7.68 2.52 8.07273C2.35636 8.46545 1.90909 8.95636 1.48364 9.40364C0.785455 10.1236 0 10.9527 0 12C0 13.0473 0.785455 13.8764 1.48364 14.5964C1.90909 15.0436 2.34545 15.5018 2.52 15.9273C2.69455 16.3527 2.69455 16.9091 2.70545 17.5309C2.71636 18.5455 2.73818 19.7127 3.51273 20.4873C4.28727 21.2618 5.45455 21.2836 6.46909 21.2945C7.09091 21.3055 7.68 21.3164 8.07273 21.48C8.46545 21.6436 8.95636 22.0909 9.40364 22.5164C10.1236 23.2145 10.9527 24 12 24C13.0473 24 13.8764 23.2145 14.5964 22.5164C15.0436 22.0909 15.5018 21.6545 15.9273 21.48C16.3527 21.3055 16.9091 21.3055 17.5309 21.2945C18.5455 21.2836 19.7127 21.2618 20.4873 20.4873C21.2618 19.7127 21.2836 18.5455 21.2945 17.5309C21.3055 16.9091 21.3164 16.32 21.48 15.9273C21.6436 15.5345 22.0909 15.0436 22.5164 14.5964C23.2145 13.8764 24 13.0473 24 12C24 10.9527 23.2145 10.1236 22.5164 9.40364ZM21.5782 13.6909C21.0655 14.2255 20.5418 14.7709 20.2691 15.4255C19.9964 16.08 19.9964 16.7891 19.9855 17.5091C19.9745 18.2291 19.9636 19.1564 19.56 19.56C19.1564 19.9636 18.3164 19.9745 17.5091 19.9855C16.7018 19.9964 16.0473 20.0073 15.4255 20.2691C14.8036 20.5309 14.2255 21.0655 13.6909 21.5782C13.1564 22.0909 12.5236 22.6909 12 22.6909C11.4764 22.6909 10.8873 22.1236 10.3091 21.5782C9.73091 21.0327 9.22909 20.5418 8.57454 20.2691C7.92 19.9964 7.21091 19.9964 6.49091 19.9855C5.77091 19.9745 4.84364 19.9636 4.44 19.56C4.03636 19.1564 4.02545 18.3164 4.01455 17.5091C4.00364 16.7018 3.99273 16.0473 3.73091 15.4255C3.46909 14.8036 2.93455 14.2255 2.42182 13.6909C1.90909 13.1564 1.30909 12.5236 1.30909 12C1.30909 11.4764 1.87636 10.8873 2.42182 10.3091C2.96727 9.73091 3.45818 9.22909 3.73091 8.57454C4.00364 7.92 4.00364 7.21091 4.01455 6.49091C4.02545 5.77091 4.03636 4.84364 4.44 4.44C4.84364 4.03636 5.68364 4.02545 6.49091 4.01455C7.29818 4.00364 7.95273 3.99273 8.57454 3.73091C9.19636 3.46909 9.77455 2.93455 10.3091 2.42182C10.8436 1.90909 11.4764 1.30909 12 1.30909C12.5236 1.30909 13.1127 1.87636 13.6909 2.42182C14.2691 2.96727 14.7709 3.45818 15.4255 3.73091C16.08 4.00364 16.7891 4.00364 17.5091 4.01455C18.2291 4.02545 19.1564 4.03636 19.56 4.44C19.9636 4.84364 19.9745 5.68364 19.9855 6.49091C19.9964 7.29818 20.0073 7.95273 20.2691 8.57454C20.5309 9.19636 21.0655 9.77455 21.5782 10.3091C22.0909 10.8436 22.6909 11.4764 22.6909 12C22.6909 12.5236 22.1236 13.1127 21.5782 13.6909ZM17.2691 8.93455C17.3284 8.99585 17.3749 9.06833 17.4059 9.14777C17.437 9.22721 17.4519 9.31203 17.4499 9.39729C17.4478 9.48255 17.4289 9.56656 17.3941 9.64443C17.3593 9.72231 17.3094 9.79249 17.2473 9.85091L10.8545 15.96C10.7301 16.0765 10.5668 16.1426 10.3964 16.1455C10.2286 16.1454 10.0677 16.0787 9.94909 15.96L6.75273 12.9055C6.62832 12.7868 6.55612 12.6236 6.55203 12.4518C6.54794 12.2799 6.61228 12.1135 6.73091 11.9891C6.84953 11.8647 7.01272 11.7925 7.18457 11.7884C7.35642 11.7843 7.52286 11.8486 7.64727 11.9673L10.3964 14.5855L16.3527 8.91273C16.414 8.85344 16.4865 8.80693 16.566 8.7759C16.6454 8.74486 16.7302 8.72993 16.8155 8.73196C16.9007 8.73399 16.9847 8.75294 17.0626 8.78772C17.1405 8.8225 17.2107 8.87241 17.2691 8.93455Z" fill="#141414"/>
</svg>
