<svg width="26" height="24" viewBox="0 0 26 24" fill="none" xmlns="http://www.w3.org/2000/svg">
<path d="M18.661 23.234C18.1366 23.2296 17.6267 23.0639 17.2023 22.76L13.887 20.3235C13.6047 20.1226 13.2653 20.0145 12.9172 20.0145C12.5691 20.0145 12.2298 20.1226 11.9475 20.3235L8.53267 22.76C8.11405 23.0691 7.60518 23.2362 7.08224 23.2362C6.5593 23.2362 6.05042 23.0691 5.6318 22.76C5.20386 22.4607 4.88451 22.034 4.72042 21.5425C4.55634 21.051 4.55628 20.5206 4.72022 20.0291L6.02982 16.0717C6.13548 15.7456 6.13466 15.3951 6.0276 15.0695C5.92054 14.7438 5.71245 14.4595 5.43289 14.2567L2.01826 11.8202C1.59527 11.5171 1.28069 11.0893 1.11983 10.5986C0.958974 10.1078 0.960073 9.57954 1.12307 9.08949C1.28848 8.60563 1.60576 8.18623 2.02898 7.89221C2.4522 7.5982 2.95945 7.44486 3.47699 7.45426H7.68746C8.04894 7.47288 8.40657 7.3742 8.70589 7.17341C9.00521 6.97262 9.22977 6.68068 9.3451 6.34222L10.6379 2.3849C10.8033 1.90105 11.1206 1.48184 11.5438 1.18783C11.967 0.893817 12.4743 0.740273 12.9918 0.749679C13.51 0.737694 14.0183 0.890262 14.4421 1.18463C14.8658 1.47901 15.1826 1.89964 15.3458 2.3849L16.6552 6.34222C16.7705 6.68068 16.9951 6.97262 17.2944 7.17341C17.5937 7.3742 17.9513 7.47288 18.3128 7.45426H22.5067C23.0259 7.44642 23.5344 7.60006 23.9599 7.89361C24.3855 8.18717 24.7065 8.60571 24.8772 9.08949C25.0411 9.58102 25.0409 10.1115 24.8768 10.603C24.7127 11.0944 24.3934 11.521 23.9654 11.8202L20.6501 14.2567C20.3706 14.4595 20.1627 14.7438 20.0556 15.0695C19.9486 15.3951 19.9477 15.7456 20.0534 16.0717L21.3464 20.0291C21.5148 20.5187 21.5186 21.0488 21.3573 21.5407C21.1961 22.0327 20.8783 22.4603 20.4512 22.76C19.9372 23.1367 19.2972 23.3061 18.661 23.234Z" stroke="black" stroke-width="1.25" stroke-miterlimit="10"/>
</svg>
