<svg width="17" height="16" viewBox="0 0 17 16" fill="none" xmlns="http://www.w3.org/2000/svg">
<path d="M4.11211 5.26074H0.766602V15.9277H4.11211V5.26074Z" fill="black"/>
<path d="M13.1545 5.0232C13.0289 5.00933 12.8994 4.99931 12.7692 4.99391C12.1385 4.95999 11.509 5.07966 10.9347 5.34263C10.3604 5.6056 9.85857 6.00401 9.47221 6.50366C9.42005 6.5707 9.37143 6.64042 9.32655 6.71252V5.28215H6.12671V15.9483H9.47221V10.9389C9.47221 10.2145 9.41595 9.44071 9.78048 8.78102C10.0887 8.22536 10.6413 7.94714 11.2687 7.94714C13.1183 7.94714 13.1591 9.61796 13.1591 9.77749V15.9953H16.5046V9.03765C16.5 6.66165 15.29 5.25363 13.1545 5.0232Z" fill="black"/>
<path d="M2.43979 3.87958C3.51111 3.87958 4.37958 3.01111 4.37958 1.93979C4.37958 0.868474 3.51111 0 2.43979 0C1.36847 0 0.5 0.868474 0.5 1.93979C0.5 3.01111 1.36847 3.87958 2.43979 3.87958Z" fill="black"/>
</svg>
