<svg width="17" height="18" viewBox="0 0 17 18" fill="none" xmlns="http://www.w3.org/2000/svg">
<path d="M8.4999 0.661133C6.23697 0.661133 5.95241 0.671556 5.06329 0.711165C4.17416 0.752859 3.56856 0.892534 3.03801 1.09892C2.48149 1.30824 1.97741 1.63659 1.561 2.061C1.13685 2.47763 0.808541 2.98164 0.598918 3.53801C0.392534 4.06752 0.251817 4.67416 0.211165 5.56016C0.171556 6.45136 0.161133 6.73488 0.161133 9.00094C0.161133 11.2649 0.171556 11.5484 0.211165 12.4376C0.252859 13.3256 0.392534 13.9312 0.598918 14.4618C0.812599 15.0101 1.09716 15.475 1.561 15.9388C2.02381 16.4026 2.48869 16.6882 3.03697 16.9009C3.56856 17.1073 4.17312 17.248 5.0612 17.2886C5.95136 17.3282 6.23488 17.3387 8.4999 17.3387C10.7649 17.3387 11.0474 17.3282 11.9376 17.2886C12.8246 17.2469 13.4323 17.1073 13.9628 16.9009C14.519 16.6915 15.0227 16.3631 15.4388 15.9388C15.9026 15.475 16.1872 15.0101 16.4009 14.4618C16.6062 13.9312 16.7469 13.3256 16.7886 12.4376C16.8282 11.5484 16.8387 11.2649 16.8387 8.9999C16.8387 6.73488 16.8282 6.45136 16.7886 5.5612C16.7469 4.67416 16.6062 4.06752 16.4009 3.53801C16.1913 2.98163 15.863 2.4776 15.4388 2.061C15.0225 1.63643 14.5184 1.30806 13.9618 1.09892C13.4302 0.892534 12.8236 0.751817 11.9365 0.711165C11.0464 0.671556 10.7639 0.661133 8.49782 0.661133H8.50094H8.4999ZM7.75254 2.1642H8.50094C10.7274 2.1642 10.9911 2.17149 11.8698 2.21214C12.6828 2.24863 13.1248 2.38517 13.4187 2.49879C13.8075 2.64993 14.0858 2.8313 14.3777 3.12315C14.6695 3.41501 14.8499 3.69227 15.001 4.08211C15.1157 4.37501 15.2512 4.81697 15.2877 5.63C15.3283 6.50869 15.3366 6.77241 15.3366 8.99782C15.3366 11.2232 15.3283 11.488 15.2877 12.3667C15.2512 13.1797 15.1146 13.6206 15.001 13.9146C14.8673 14.2766 14.6539 14.604 14.3766 14.8725C14.0848 15.1643 13.8075 15.3447 13.4177 15.4958C13.1258 15.6105 12.6839 15.746 11.8698 15.7835C10.9911 15.8231 10.7274 15.8325 8.50094 15.8325C6.27449 15.8325 6.00974 15.8231 5.13104 15.7835C4.31801 15.746 3.8771 15.6105 3.58315 15.4958C3.22094 15.3623 2.89325 15.1493 2.6242 14.8725C2.34667 14.6036 2.13296 14.2759 1.99879 13.9135C1.88517 13.6206 1.74863 13.1787 1.71214 12.3656C1.67253 11.4869 1.6642 11.2232 1.6642 8.99573C1.6642 6.76928 1.67253 6.50661 1.71214 5.62791C1.74967 4.81488 1.88517 4.37293 1.99983 4.07898C2.15097 3.69019 2.33234 3.41188 2.6242 3.12003C2.91605 2.82817 3.19332 2.64784 3.58315 2.4967C3.8771 2.38205 4.31801 2.24654 5.13104 2.20902C5.90029 2.17358 6.1984 2.16315 7.75254 2.16211V2.1642ZM12.9518 3.54843C12.8204 3.54843 12.6902 3.57431 12.5688 3.6246C12.4474 3.67489 12.3371 3.7486 12.2442 3.84152C12.1513 3.93443 12.0776 4.04475 12.0273 4.16615C11.977 4.28755 11.9511 4.41768 11.9511 4.54908C11.9511 4.68049 11.977 4.81061 12.0273 4.93202C12.0776 5.05342 12.1513 5.16373 12.2442 5.25665C12.3371 5.34957 12.4474 5.42328 12.5688 5.47356C12.6902 5.52385 12.8204 5.54974 12.9518 5.54974C13.2171 5.54974 13.4717 5.44431 13.6593 5.25665C13.847 5.06899 13.9524 4.81447 13.9524 4.54908C13.9524 4.28369 13.847 4.02917 13.6593 3.84152C13.4717 3.65386 13.2171 3.54843 12.9518 3.54843ZM8.50094 4.71794C7.93294 4.70908 7.36884 4.8133 6.8415 5.02454C6.31417 5.23578 5.83412 5.54981 5.42931 5.94835C5.0245 6.3469 4.70301 6.82199 4.48358 7.34597C4.26414 7.86995 4.15113 8.43235 4.15113 9.00042C4.15113 9.56849 4.26414 10.1309 4.48358 10.6549C4.70301 11.1789 5.0245 11.6539 5.42931 12.0525C5.83412 12.451 6.31417 12.7651 6.8415 12.9763C7.36884 13.1875 7.93294 13.2918 8.50094 13.2829C9.62516 13.2654 10.6974 12.8065 11.4862 12.0052C12.275 11.204 12.7171 10.1248 12.7171 9.00042C12.7171 7.87607 12.275 6.79681 11.4862 5.9956C10.6974 5.19439 9.62516 4.73548 8.50094 4.71794ZM8.50094 6.21996C9.23823 6.21996 9.94532 6.51285 10.4667 7.03419C10.988 7.55553 11.2809 8.26261 11.2809 8.9999C11.2809 9.73718 10.988 10.4443 10.4667 10.9656C9.94532 11.487 9.23823 11.7798 8.50094 11.7798C7.76366 11.7798 7.05657 11.487 6.53523 10.9656C6.01389 10.4443 5.72101 9.73718 5.72101 8.9999C5.72101 8.26261 6.01389 7.55553 6.53523 7.03419C7.05657 6.51285 7.76366 6.21996 8.50094 6.21996Z" fill="#141414"/>
</svg>
