<svg width="19" height="16" viewBox="0 0 19 16" fill="none" xmlns="http://www.w3.org/2000/svg">
<path d="M0.796726 8.26333L4.08974 9.43578C4.42478 9.55506 4.78447 9.59643 5.13937 9.55653C5.49426 9.51662 5.83427 9.39657 6.13155 9.20619L13.1447 4.71844C13.2217 4.6688 13.3142 4.64645 13.4064 4.65525C13.4986 4.66405 13.5848 4.70345 13.65 4.76665C13.6885 4.80312 13.7188 4.84673 13.7392 4.89481C13.7596 4.9429 13.7695 4.99447 13.7685 5.04637C13.7674 5.09828 13.7554 5.14944 13.7331 5.19673C13.7108 5.24403 13.6788 5.28648 13.6389 5.3215L8.45147 9.9317C8.38207 9.99344 8.3276 10.069 8.29187 10.1531C8.25614 10.2373 8.24003 10.3279 8.24466 10.4186C8.2493 10.5093 8.27455 10.598 8.31868 10.6784C8.36281 10.7587 8.42474 10.8288 8.50009 10.8837L13.972 14.8779C14.1978 15.0423 14.4642 15.1477 14.7451 15.1836C15.026 15.2195 15.3118 15.1848 15.5746 15.0828C15.8373 14.9809 16.068 14.8151 16.244 14.6018C16.42 14.3886 16.5354 14.1351 16.5788 13.8661L18.4867 2.0391C18.5172 1.84965 18.4945 1.65581 18.4209 1.47761C18.3473 1.29942 18.2254 1.14332 18.068 1.02545C17.9106 0.907578 17.7232 0.832207 17.5253 0.807116C17.3274 0.782024 17.1261 0.808124 16.9422 0.882721L0.7776 7.45058C0.695341 7.48447 0.625388 7.54102 0.576591 7.61308C0.527794 7.68514 0.502347 7.76947 0.503453 7.85542C0.503229 7.94401 0.5312 8.03056 0.583615 8.10346C0.63603 8.17636 0.710381 8.23214 0.796726 8.26333Z" fill="#141414"/>
</svg>
