<svg width="19" height="18" viewBox="0 0 19 18" fill="none" xmlns="http://www.w3.org/2000/svg">
<g clip-path="url(#clip0_1973_378)">
<path d="M1.88873 17.9517L2.62285 13.9536C1.26516 12.4619 0.509847 10.5191 0.503424 8.50201C0.502041 7.3626 0.744875 6.23612 1.21554 5.19846C1.67553 4.18442 2.33172 3.27148 3.14627 2.5123C3.97813 1.73541 4.94962 1.12313 6.00936 0.70782C8.25462 -0.172138 10.7493 -0.172138 12.9945 0.70782C14.053 1.12354 15.0232 1.7358 15.854 2.5123C16.6708 3.27123 17.3288 4.18477 17.7899 5.19993C18.2596 6.23791 18.5026 7.36415 18.5026 8.50348C18.5026 9.64282 18.2596 10.7691 17.7899 11.807C17.329 12.8221 16.6709 13.7354 15.854 14.4939C15.0232 15.2704 14.053 15.8827 12.9945 16.2984C10.6767 17.2078 8.09542 17.1768 5.80013 16.2118L1.88873 17.9517ZM9.50158 1.04111C5.08655 1.04111 1.49449 4.38798 1.49449 8.50201C1.49449 10.3307 2.21245 12.0897 3.51552 13.4559L3.69099 13.6394L3.20646 16.2764L5.79719 15.1209L6.00054 15.2134C7.10035 15.7112 8.29437 15.9665 9.50158 15.9622C13.9159 15.9622 17.5079 12.6153 17.5079 8.50201C17.5079 4.38872 13.9159 1.04111 9.50158 1.04111Z" fill="#141414"/>
<path d="M13.9807 10.5881C13.7282 10.4112 13.4191 10.3297 13.1453 10.1858C12.7614 9.99785 12.4846 9.87746 12.2834 9.80111C12.155 9.75486 11.8635 9.62419 11.76 9.70788C11.4363 9.97437 11.0927 10.7188 10.7271 10.8597C9.8175 10.6806 8.97548 10.0522 8.31551 9.41936C8.02186 9.13673 7.48154 8.34975 7.36114 8.13392C7.34206 7.91368 7.7348 7.62003 7.82069 7.45485C8.27731 6.94096 7.9308 6.62089 7.87134 6.40432C7.77076 6.18408 7.59166 5.79059 7.43897 5.46244C7.30829 5.24807 7.27963 4.93607 7.03957 4.81567C6.03749 4.30179 5.46637 5.32956 5.23071 5.86694C3.81532 9.27695 12.3312 15.7776 14.0637 11.2995C14.1518 10.9118 14.118 10.7702 13.9807 10.5881Z" fill="#141414"/>
</g>
<defs>
<clipPath id="clip0_1973_378">
<rect width="18" height="17.9038" fill="white" transform="translate(0.5 0.0478516)"/>
</clipPath>
</defs>
</svg>
