<svg width="120" height="41" viewBox="0 0 120 41" fill="none" xmlns="http://www.w3.org/2000/svg">
<path d="M119.556 22.7711L108.282 11.7271L98.986 2.5363C97.4574 0.996548 95.2858 0.114258 93.0297 0.114258L71.1961 0.114258C67.5473 0.114258 65.1847 1.00336 64.1779 2.75772C62.7999 5.15592 64.6849 7.87432 64.9017 8.1741L64.9899 8.29333L78.4164 20.7408C78.8904 21.1802 78.9676 21.5072 78.9308 21.589C78.8794 21.7048 78.4752 21.9535 77.608 21.9535H54.8337C53.5219 21.9535 51.5561 20.935 49.5792 19.2317L43.7626 14.2173H51.5414C51.9125 14.2207 54.988 14.19 57.156 12.2347C58.5412 10.9845 59.2431 9.28122 59.2431 7.16917C59.2431 1.73576 54.3193 0.178982 51.7178 0.114258L32.6914 0.114258C31.0085 0.114258 29.4248 0.724024 28.238 1.83114C27.0511 2.93827 26.4008 4.40648 26.4081 5.97008L26.4779 19.6745C26.4779 21.1223 25.2066 22.2976 23.6486 22.2976H15.2341C12.0079 22.2976 8.9177 21.0371 6.7461 18.8399C6.61014 18.7003 6.47419 18.5606 6.33823 18.4243C4.95296 17.0004 4.18867 15.1609 4.18867 13.243L4.18867 2.19565C4.18867 1.36445 3.46113 0.686552 2.56089 0.686552C1.66432 0.686552 0.933105 1.36105 0.933105 2.19565L0.933105 13.243C0.933105 15.9103 1.99502 18.4652 3.92411 20.4444C4.06374 20.5875 4.20337 20.7306 4.343 20.8736C7.12824 23.6942 11.0967 25.3123 15.2304 25.3123H23.6376C26.9924 25.3123 29.7225 22.7813 29.7225 19.6643L29.6527 5.95304C29.649 5.2002 29.9613 4.49164 30.5345 3.95682C31.1077 3.42199 31.872 3.12903 32.6841 3.12903L51.6296 3.12903C51.7802 3.13584 52.9046 3.2142 53.9702 3.74902C55.3224 4.42692 55.9838 5.54766 55.9838 7.16917C55.9838 8.44662 55.6274 9.39363 54.8962 10.0613C53.6358 11.2161 51.5965 11.2059 51.5892 11.2025H35.4804L47.3599 21.4391C49.2265 23.0504 52.0411 24.9683 54.83 24.9683H77.6043C79.6914 24.9683 81.3119 24.1371 81.9328 22.7404C82.5281 21.4119 82.0688 19.8653 80.7129 18.6049L67.5253 6.37886C67.2203 5.90535 66.6949 4.7812 67.0476 4.16802C67.1872 3.92275 67.9038 3.12222 71.1961 3.12222L93.0297 3.12222C94.3782 3.12222 95.679 3.65023 96.6049 4.58021L103.348 11.2468H96.3882C96.3845 11.2468 96.3808 11.2468 96.3771 11.2468H96.3587C96.3477 11.2468 96.333 11.2468 96.322 11.2502C96.2853 11.2502 96.2448 11.2536 96.2081 11.257C96.186 11.2604 96.1603 11.2638 96.1383 11.2638C96.1089 11.2672 96.0832 11.2706 96.0538 11.2774C96.0244 11.2809 95.9987 11.2877 95.9693 11.2945C95.9472 11.3013 95.9252 11.3047 95.9031 11.3115C95.8737 11.3183 95.8443 11.3285 95.8149 11.3388C95.7929 11.3456 95.7745 11.3524 95.7525 11.3592C95.7267 11.3694 95.6973 11.3796 95.6716 11.3933C95.6496 11.4035 95.6275 11.4103 95.6055 11.4205C95.5834 11.4307 95.5577 11.4444 95.5357 11.458C95.5136 11.4716 95.4879 11.4818 95.4659 11.4989C95.4475 11.5091 95.4291 11.5227 95.4107 11.5363C95.385 11.5534 95.363 11.5704 95.3373 11.5874C95.3226 11.6011 95.3042 11.6113 95.2895 11.6249C95.2674 11.6453 95.2417 11.6624 95.2197 11.6828C95.205 11.6965 95.1903 11.7135 95.1756 11.7271C95.1535 11.7475 95.1352 11.768 95.1168 11.7884C95.0984 11.8089 95.0837 11.8293 95.0653 11.8497C95.0506 11.8668 95.036 11.8872 95.0213 11.9042C94.9992 11.9315 94.9808 11.9622 94.9625 11.9894C94.9551 11.9996 94.9478 12.0098 94.9404 12.0201L94.9294 12.0371C94.9294 12.0405 94.9257 12.0405 94.9257 12.0439L88.3154 22.9584C87.8744 23.684 88.1537 24.6038 88.9364 25.0126C89.1899 25.1454 89.4618 25.2067 89.73 25.2067C90.2996 25.2067 90.8507 24.9308 91.1484 24.4369L97.3068 14.2718H106.397L117.189 24.8422C117.509 25.1556 117.939 25.3123 118.372 25.3123C118.773 25.3123 119.177 25.1761 119.489 24.9001C120.144 24.3278 120.173 23.374 119.556 22.7711Z" fill="#141414"/>
<path d="M5.45995 34.4426C5.45995 36.0846 4.20328 37.4233 2.42852 37.4233H0.0144043L0.0144043 31.4619H2.42852C4.19961 31.4653 5.45995 32.8007 5.45995 34.4426ZM4.98227 34.4426C4.98227 33.0289 3.94607 31.8877 2.42852 31.8877H0.499432L0.499432 36.9975H2.42852C3.9424 36.9975 4.98227 35.8563 4.98227 34.4426Z" fill="#141414"/>
<path d="M21.8298 31.4648V37.4263H21.3411V31.4648H21.8298Z" fill="#141414"/>
<path d="M44.1556 34.8784C44.1556 36.3159 42.9724 37.5184 41.0507 37.5184C39.0591 37.5184 37.6702 36.149 37.6702 34.4457C37.6702 32.7425 39.0554 31.373 41.0139 31.373C42.2081 31.373 43.2443 31.9522 43.7771 32.8106L43.3472 33.0491C42.9246 32.2996 42.0244 31.8057 41.0139 31.8057C39.3237 31.8057 38.1589 32.9809 38.1589 34.4457C38.1589 35.9105 39.3237 37.0858 41.0507 37.0858C42.6123 37.0858 43.5566 36.1933 43.6595 35.0759H40.9331V34.6501H44.1556V34.8784Z" fill="#141414"/>
<path d="M60.4701 31.4648V37.4263H59.9851V31.4648H60.4701Z" fill="#141414"/>
<path d="M80.5397 31.8907H78.5187V37.4263H78.0227V31.8907H76.0017V31.4648H80.5397V31.8907Z" fill="#141414"/>
<path d="M99.0925 35.9074H95.87L95.2454 37.4233H94.731L97.2296 31.4619H97.744L100.232 37.4233H99.7172L99.0925 35.9074ZM98.9198 35.4816L97.4868 32.0172L96.0538 35.4816H98.9198Z" fill="#141414"/>
<path d="M118.898 36.9975V37.4233H115.381V31.4619H115.866V36.9975H118.898Z" fill="#141414"/>
<path d="M118.935 28.1055L0 28.1055L0 28.5756L118.935 28.5756V28.1055Z" fill="#141414"/>
<path d="M118.935 40.3896L0 40.3896L0 40.8563L118.935 40.8563V40.3896Z" fill="#141414"/>
</svg>
